<svg width="105" height="97" viewBox="0 0 105 97" fill="none" xmlns="http://www.w3.org/2000/svg">
<path d="M70.6786 53.2762C71.0842 52.9014 71.1093 52.2687 70.7345 51.8631C70.3598 51.4574 69.7271 51.4323 69.3214 51.8071L70.6786 53.2762ZM52.5 68.7083L51.8214 69.4428C52.2046 69.7968 52.7954 69.7968 53.1786 69.4428L52.5 68.7083ZM35.6786 51.8071C35.2729 51.4323 34.6402 51.4574 34.2655 51.8631C33.8907 52.2687 33.9158 52.9014 34.3214 53.2762L35.6786 51.8071ZM69.3214 51.8071L51.8214 67.9738L53.1786 69.4428L70.6786 53.2762L69.3214 51.8071ZM53.1786 67.9738L35.6786 51.8071L34.3214 53.2762L51.8214 69.4428L53.1786 67.9738Z" />
<path d="M70.6786 29.0262C71.0842 28.6514 71.1093 28.0187 70.7345 27.6131C70.3598 27.2074 69.7271 27.1823 69.3214 27.5571L70.6786 29.0262ZM52.5 44.4583L51.8214 45.1928C52.2046 45.5468 52.7954 45.5468 53.1786 45.1928L52.5 44.4583ZM35.6786 27.5571C35.2729 27.1823 34.6402 27.2074 34.2655 27.6131C33.8907 28.0187 33.9158 28.6514 34.3214 29.0262L35.6786 27.5571ZM69.3214 27.5571L51.8214 43.7238L53.1786 45.1928L70.6786 29.0262L69.3214 27.5571ZM53.1786 43.7238L35.6786 27.5571L34.3214 29.0262L51.8214 45.1928L53.1786 43.7238Z"/>
</svg>
