<svg width="50" height="50" viewBox="0 0 50 50" fill="none" xmlns="http://www.w3.org/2000/svg">
<path d="M41.3229 4.16675H8.67291C7.37916 4.16675 6.37291 5.29175 6.51666 6.57508L10.2542 40.2188C10.3521 41.0938 10.9687 41.823 11.8146 42.0647L24.4021 45.6605C24.7917 45.7709 25.2042 45.7709 25.5937 45.6605L38.1812 42.0647C39.0271 41.823 39.6437 41.0938 39.7417 40.2188L43.4792 6.57508C43.6229 5.29175 42.6167 4.16675 41.3229 4.16675ZM33.2229 16.6667H19.2062L19.625 21.4792L32.2854 21.4376C32.2875 21.4376 32.2896 21.4376 32.2917 21.4376C32.8729 21.4376 33.4271 21.6813 33.8208 22.1084C34.2167 22.5376 34.4146 23.1126 34.3667 23.6938L33.5687 33.2959C33.4979 34.1626 32.8958 34.8938 32.0562 35.1292L25.5625 36.9563C25.3792 37.0063 25.1875 37.0334 24.9979 37.0334C24.8021 37.0334 24.6062 37.0063 24.4208 36.9522L17.9812 35.0897C17.1604 34.8522 16.5687 34.1417 16.4854 33.2938L16.3208 31.6313C16.2062 30.4855 17.0437 29.4667 18.1875 29.3522C19.3146 29.2584 20.3542 30.0772 20.4667 31.2188L20.4937 31.4772L25.0062 32.7813L29.5354 31.5084L30.025 25.6084L17.7208 25.648C17.7187 25.648 17.7167 25.648 17.7146 25.648C16.6333 25.648 15.7333 24.823 15.6396 23.7459L14.8583 14.7647C14.8062 14.1834 15.0021 13.6063 15.3979 13.1751C15.7937 12.7438 16.35 12.5001 16.9333 12.5001H33.2229C34.375 12.5001 35.3062 13.4334 35.3062 14.5834C35.3062 15.7334 34.375 16.6667 33.2229 16.6667Z" fill="#C9E4CA"/>
</svg>
