<svg width="35" height="35" viewBox="0 0 35 35" fill="none" xmlns="http://www.w3.org/2000/svg">
<path d="M17.4999 24.7917C21.527 24.7917 24.7916 21.5271 24.7916 17.5C24.7916 13.473 21.527 10.2084 17.4999 10.2084C13.4728 10.2084 10.2083 13.473 10.2083 17.5C10.2083 21.5271 13.4728 24.7917 17.4999 24.7917Z" stroke="#1A2731" stroke-width="2" stroke-linecap="round" stroke-linejoin="round"/>
<path d="M16.5 5.83342C16.5 6.3857 16.9477 6.83342 17.5 6.83342C18.0523 6.83342 18.5 6.3857 18.5 5.83342H16.5ZM18.5 2.91675C18.5 2.36446 18.0523 1.91675 17.5 1.91675C16.9477 1.91675 16.5 2.36446 16.5 2.91675H18.5ZM18.5 29.1668C18.5 28.6145 18.0523 28.1668 17.5 28.1668C16.9477 28.1668 16.5 28.6145 16.5 29.1668H18.5ZM16.5 32.0834C16.5 32.6357 16.9477 33.0834 17.5 33.0834C18.0523 33.0834 18.5 32.6357 18.5 32.0834H16.5ZM18.5 5.83342V2.91675H16.5V5.83342H18.5ZM16.5 29.1668V32.0834H18.5V29.1668H16.5Z" fill="#1A2731"/>
<path d="M8.64704 10.0611C9.03756 10.4517 9.67073 10.4517 10.0612 10.0611C10.4518 9.6706 10.4518 9.03744 10.0612 8.64691L8.64704 10.0611ZM7.99885 6.58452C7.60833 6.19399 6.97517 6.19399 6.58464 6.58452C6.19412 6.97504 6.19412 7.60821 6.58464 7.99873L7.99885 6.58452ZM26.5604 25.1461C26.1699 24.7555 25.5367 24.7555 25.1462 25.1461C24.7557 25.5366 24.7557 26.1698 25.1462 26.5603L26.5604 25.1461ZM27.2086 28.6227C27.5991 29.0132 28.2323 29.0132 28.6228 28.6227C29.0133 28.2322 29.0133 27.599 28.6228 27.2085L27.2086 28.6227ZM10.0612 8.64691L7.99885 6.58452L6.58464 7.99873L8.64704 10.0611L10.0612 8.64691ZM25.1462 26.5603L27.2086 28.6227L28.6228 27.2085L26.5604 25.1461L25.1462 26.5603Z" fill="#1A2731"/>
<path d="M5.83342 18.5C6.3857 18.5 6.83342 18.0523 6.83342 17.5C6.83342 16.9477 6.3857 16.5 5.83342 16.5V18.5ZM2.91675 16.5C2.36446 16.5 1.91675 16.9477 1.91675 17.5C1.91675 18.0523 2.36446 18.5 2.91675 18.5V16.5ZM29.1668 16.5C28.6145 16.5 28.1668 16.9477 28.1668 17.5C28.1668 18.0523 28.6145 18.5 29.1668 18.5V16.5ZM32.0834 18.5C32.6357 18.5 33.0834 18.0523 33.0834 17.5C33.0834 16.9477 32.6357 16.5 32.0834 16.5V18.5ZM5.83342 16.5H2.91675V18.5H5.83342V16.5ZM29.1668 18.5H32.0834V16.5H29.1668V18.5Z" fill="#1A2731"/>
<path d="M25.146 8.64691C24.7554 9.03744 24.7554 9.6706 25.146 10.0611C25.5365 10.4517 26.1696 10.4517 26.5602 10.0611L25.146 8.64691ZM28.6226 7.99873C29.0131 7.60821 29.0131 6.97504 28.6226 6.58452C28.232 6.19399 27.5989 6.19399 27.2083 6.58452L28.6226 7.99873ZM10.061 26.5603C10.4515 26.1698 10.4515 25.5366 10.061 25.1461C9.67048 24.7555 9.03732 24.7555 8.64679 25.1461L10.061 26.5603ZM6.5844 27.2085C6.19387 27.599 6.19387 28.2322 6.5844 28.6227C6.97492 29.0132 7.60809 29.0132 7.99861 28.6227L6.5844 27.2085ZM26.5602 10.0611L28.6226 7.99873L27.2083 6.58452L25.146 8.64691L26.5602 10.0611ZM8.64679 25.1461L6.5844 27.2085L7.99861 28.6227L10.061 26.5603L8.64679 25.1461Z" fill="#1A2731"/>
</svg>
