<svg width="85" height="25" viewBox="0 0 85 25" fill="none" xmlns="http://www.w3.org/2000/svg">
<path d="M0.8 15.584C0.8 13.9413 1.12 12.4693 1.76 11.168C2.4 9.84533 3.27467 8.8 4.384 8.032C5.49333 7.264 6.77333 6.88 8.224 6.88C9.39733 6.88 10.464 7.168 11.424 7.744C12.384 8.29867 13.1093 9.03467 13.6 9.952V0.639999H18.72V18.304C18.72 18.816 18.8053 19.1787 18.976 19.392C19.1467 19.584 19.424 19.7013 19.808 19.744V24C18.912 24.1707 18.1867 24.256 17.632 24.256C16.7573 24.256 16.0427 24.064 15.488 23.68C14.9547 23.296 14.624 22.7627 14.496 22.08L14.4 21.216C13.8027 22.2613 12.992 23.04 11.968 23.552C10.944 24.064 9.86667 24.32 8.736 24.32C7.584 24.32 6.51733 24.1067 5.536 23.68C4.576 23.232 3.73333 22.6133 3.008 21.824C2.304 21.0347 1.76 20.1067 1.376 19.04C0.992 17.9733 0.8 16.8213 0.8 15.584ZM13.632 17.664V14.144C13.4187 13.568 13.1093 13.0667 12.704 12.64C12.32 12.2133 11.872 11.872 11.36 11.616C10.8693 11.36 10.368 11.232 9.856 11.232C9.30133 11.232 8.78933 11.3493 8.32 11.584C7.872 11.8187 7.47733 12.1493 7.136 12.576C6.79467 12.9813 6.528 13.4507 6.336 13.984C6.16533 14.5173 6.08 15.0827 6.08 15.68C6.08 16.2987 6.176 16.8747 6.368 17.408C6.58133 17.92 6.86933 18.3787 7.232 18.784C7.59467 19.168 8.02133 19.4667 8.512 19.68C9.00267 19.8933 9.536 20 10.112 20C10.4747 20 10.8267 19.9467 11.168 19.84C11.5093 19.712 11.8293 19.552 12.128 19.36C12.448 19.168 12.736 18.9227 12.992 18.624C13.248 18.3253 13.4613 18.0053 13.632 17.664ZM30.6975 24.32C29.2682 24.32 27.9882 24.0853 26.8575 23.616C25.7482 23.1467 24.8095 22.5067 24.0415 21.696C23.2735 20.8853 22.6868 19.9573 22.2815 18.912C21.8975 17.8667 21.7055 16.768 21.7055 15.616C21.7055 14.4427 21.8975 13.3333 22.2815 12.288C22.6868 11.2427 23.2735 10.3147 24.0415 9.504C24.8095 8.69333 25.7482 8.05333 26.8575 7.584C27.9882 7.11467 29.2682 6.88 30.6975 6.88C32.1268 6.88 33.3962 7.11467 34.5055 7.584C35.6148 8.05333 36.5535 8.69333 37.3215 9.504C38.0895 10.3147 38.6762 11.2427 39.0815 12.288C39.4868 13.3333 39.6895 14.4427 39.6895 15.616C39.6895 16.768 39.4868 17.8667 39.0815 18.912C38.6762 19.9573 38.0895 20.8853 37.3215 21.696C36.5535 22.5067 35.6148 23.1467 34.5055 23.616C33.3962 24.0853 32.1268 24.32 30.6975 24.32ZM26.9535 15.616C26.9535 16.4907 27.1135 17.2587 27.4335 17.92C27.7748 18.5813 28.2228 19.0933 28.7775 19.456C29.3322 19.8187 29.9722 20 30.6975 20C31.4015 20 32.0308 19.8187 32.5855 19.456C33.1615 19.072 33.6095 18.5493 33.9295 17.888C34.2495 17.2267 34.4095 16.4693 34.4095 15.616C34.4095 14.7413 34.2495 13.9733 33.9295 13.312C33.6095 12.6507 33.1615 12.1387 32.5855 11.776C32.0308 11.4133 31.4015 11.232 30.6975 11.232C29.9722 11.232 29.3322 11.4133 28.7775 11.776C28.2228 12.1387 27.7748 12.6507 27.4335 13.312C27.1135 13.9733 26.9535 14.7413 26.9535 15.616ZM52.8588 23.104C52.3894 23.296 51.8668 23.488 51.2908 23.68C50.7361 23.872 50.1494 24.0213 49.5308 24.128C48.9121 24.256 48.3041 24.32 47.7068 24.32C46.8534 24.32 46.0641 24.1813 45.3388 23.904C44.6348 23.6053 44.0694 23.1253 43.6428 22.464C43.2374 21.8027 43.0348 20.928 43.0348 19.84V11.072H40.8908V7.2H43.0348V1.856H48.1548V7.2H51.5788V11.072H48.1548V18.08C48.1548 18.6347 48.2934 19.04 48.5708 19.296C48.8481 19.5307 49.2001 19.648 49.6267 19.648C49.9894 19.648 50.3734 19.584 50.7788 19.456C51.2054 19.328 51.5681 19.1893 51.8668 19.04L52.8588 23.104ZM72.6905 24.192C70.9838 24.192 69.4372 23.872 68.0505 23.232C66.6852 22.5707 65.5012 21.696 64.4985 20.608C63.5172 19.4987 62.7598 18.2613 62.2265 16.896C61.6932 15.5093 61.4265 14.08 61.4265 12.608C61.4265 11.0933 61.7038 9.65333 62.2585 8.288C62.8345 6.92267 63.6238 5.70667 64.6265 4.64C65.6505 3.552 66.8558 2.69867 68.2425 2.08C69.6292 1.46133 71.1438 1.152 72.7865 1.152C74.4718 1.152 75.9972 1.48267 77.3625 2.144C78.7492 2.784 79.9332 3.65867 80.9145 4.768C81.9172 5.87733 82.6852 7.12533 83.2185 8.512C83.7518 9.87733 84.0185 11.2747 84.0185 12.704C84.0185 14.2187 83.7412 15.6587 83.1865 17.024C82.6318 18.3893 81.8425 19.616 80.8185 20.704C79.7945 21.7707 78.5892 22.624 77.2025 23.264C75.8372 23.8827 74.3332 24.192 72.6905 24.192ZM66.7705 12.672C66.7705 13.5467 66.8985 14.4 67.1545 15.232C67.4105 16.0427 67.7838 16.768 68.2745 17.408C68.7865 18.048 69.4158 18.56 70.1625 18.944C70.9092 19.328 71.7625 19.52 72.7225 19.52C73.7252 19.52 74.5998 19.328 75.3465 18.944C76.0932 18.5387 76.7118 18.0053 77.2025 17.344C77.6932 16.6827 78.0558 15.9467 78.2905 15.136C78.5465 14.304 78.6745 13.4613 78.6745 12.608C78.6745 11.7333 78.5465 10.8907 78.2905 10.08C78.0345 9.26933 77.6505 8.544 77.1385 7.904C76.6265 7.24267 75.9972 6.73067 75.2505 6.368C74.5038 6.00533 73.6612 5.824 72.7225 5.824C71.7198 5.824 70.8452 6.016 70.0985 6.4C69.3732 6.784 68.7545 7.30667 68.2425 7.968C67.7518 8.608 67.3785 9.344 67.1225 10.176C66.8878 10.9867 66.7705 11.8187 66.7705 12.672Z" fill="url(#paint0_linear_48_185)"/>
<defs>
<linearGradient id="paint0_linear_48_185" x1="51.7308" y1="24.5854" x2="21.3116" y2="42.0323" gradientUnits="userSpaceOnUse">
<stop stop-color="#628D92" stop-opacity="0.76"/>
<stop offset="0.538268" stop-color="#55828B"/>
<stop offset="1" stop-color="#628D92"/>
</linearGradient>
</defs>
</svg>
