<svg width="50" height="50" viewBox="0 0 50 50" fill="none" xmlns="http://www.w3.org/2000/svg">
<path d="M24.9069 2.34387C21.6105 2.35453 18.2653 3.08829 15.1016 4.62506C9.70008 7.24928 5.56284 11.9124 3.59956 17.5874C-0.497312 29.4046 5.7617 42.3045 17.5797 46.4006C29.3976 50.4967 42.2975 44.2377 46.3944 32.4205C48.3819 26.7408 48.0105 20.5003 45.3629 15.0956C41.435 7.01138 33.3311 2.31663 24.9069 2.34387ZM24.6353 3.89569C27.0419 3.85402 29.4967 4.2273 31.9031 5.06146C37.1851 6.89271 41.5245 10.7465 43.9652 15.7762C46.4066 20.8059 46.7478 26.6005 44.9173 31.8834C41.104 42.8834 29.0962 48.7101 18.0954 44.8976C7.09463 41.0851 1.26869 29.0765 5.08119 18.0757C8.05971 9.48132 16.0404 4.04449 24.6353 3.89569ZM24.7177 6.49884C24.0654 6.48946 23.4131 6.51572 22.7631 6.57666C22.3318 6.59072 21.9944 6.95185 22.0093 7.38232C22.0234 7.81357 22.3845 8.15095 22.815 8.1361C22.847 8.13532 22.8806 8.13242 22.9126 8.12695C23.5001 8.06601 24.0897 8.0361 24.6796 8.03845C25.1069 7.97907 25.4042 7.58458 25.3449 7.15802C25.2988 6.82677 25.0466 6.56134 24.7177 6.49884ZM19.5725 7.22058C19.4716 7.2095 19.366 7.21871 19.2627 7.24957C13.7651 8.92222 9.39506 13.1153 7.49818 18.5395C7.34506 18.9427 7.54824 19.3935 7.95137 19.5466C8.35449 19.6998 8.80532 19.4981 8.95845 19.095C8.96392 19.0817 8.96828 19.0678 8.97218 19.0538L8.94472 19.0812C10.6752 14.114 14.6777 10.2715 19.7113 8.74493C20.1246 8.62149 20.3581 8.18623 20.2347 7.77294C20.1421 7.46298 19.875 7.25379 19.5725 7.22058ZM35.1074 11.5236C33.2465 11.5236 31.7398 13.0318 31.7398 14.8927C31.7398 16.7536 33.2473 18.2634 35.1074 18.2634C35.5871 18.2634 36.0415 18.1593 36.4548 17.978L33.9829 15.4237C33.9313 15.3706 33.9034 15.298 33.9066 15.2238C33.9089 15.1496 33.9427 15.0792 33.9981 15.03L37.1369 12.2194C36.5712 11.7889 35.8731 11.5236 35.1074 11.5236ZM37.5488 12.5825L34.5734 15.2482L36.9522 17.7064C37.8686 17.1041 38.475 16.0716 38.475 14.8927C38.475 13.9958 38.1199 13.1864 37.5488 12.5825ZM37.4863 14.1816C37.5916 14.1753 37.6953 14.2304 37.7457 14.3312C37.7597 14.3601 38.0934 15.0488 37.6465 15.9425C37.5988 16.0386 37.5024 16.0936 37.4024 16.0936C37.3617 16.0936 37.3193 16.0841 37.2803 16.0646C37.1451 15.9974 37.0902 15.8343 37.1582 15.6984C37.4777 15.0601 37.2645 14.5918 37.2559 14.5723C37.1918 14.4371 37.2481 14.2747 37.3825 14.2091C37.4161 14.1929 37.4512 14.1837 37.4863 14.1816ZM30.7877 16.9206C30.2853 16.9423 29.7152 17.0642 29.1016 17.2853C26.6602 18.1642 23.7305 21.3868 23.7305 21.3868L21.3806 24.1121L23.3093 26.0072L32.0664 17.1586C31.7246 16.9782 31.29 16.8989 30.7877 16.9206ZM32.5012 17.4974L23.6984 26.3917L24.8352 27.5102L31.4453 20.8055C31.4649 20.7867 32.8905 19.3798 32.8201 18.1306C32.7553 17.883 32.6497 17.6685 32.5012 17.4974ZM32.634 20.2165C32.2543 20.7735 31.8634 21.161 31.8298 21.193L25.2243 27.8917L26.1017 28.7553C26.1908 28.6741 26.2766 28.5986 26.3657 28.5157C31.1258 24.1017 32.1277 22.2188 32.634 20.2165ZM21.022 24.5271L18.8477 27.0509L22.8348 26.3093L21.022 24.5271ZM23.2193 26.6862L21.846 28.1083L24.2844 27.733L23.2193 26.6862ZM24.7696 28.2121L21.2189 28.7584L14.7095 35.4951L17.4408 38.1807L17.5781 38.1837L16.8945 35.3517C16.8945 35.3517 20.6606 33.641 25.6973 29.1215L24.7696 28.2121ZM40.4236 29.001C40.1242 29.0556 39.8729 29.2833 39.8026 29.5991C39.7143 29.9952 39.943 30.3936 40.3305 30.5146L41.8381 30.9175C42.2592 31.0112 42.6766 30.7465 42.7704 30.3254C42.8587 29.9293 42.6284 29.531 42.2409 29.4099L40.7349 29.0071C40.6296 28.9836 40.5234 28.9827 40.4236 29.001ZM39.0961 32.6783C38.7929 32.6517 38.4889 32.805 38.3377 33.0903C38.1455 33.4528 38.267 33.9024 38.6154 34.1188L39.9674 34.897C40.3439 35.1118 40.8237 34.9806 41.0385 34.604C41.2534 34.2274 41.1221 33.7477 40.7456 33.5328L39.3936 32.7668C39.2983 32.7163 39.1972 32.6872 39.0961 32.6783ZM36.5875 35.8064C36.3878 35.8064 36.1894 35.8829 36.0367 36.0353C35.732 36.34 35.732 36.8338 36.0367 37.1385L37.1399 38.2432C37.4446 38.5479 37.9384 38.5479 38.2431 38.2432C38.5478 37.9385 38.5478 37.4432 38.2431 37.1385L37.1399 36.0353C36.9876 35.8829 36.7872 35.8064 36.5875 35.8064ZM14.3295 35.8888L12.207 38.0861L16.6474 38.1669L14.3295 35.8888ZM33.3359 38.2325C33.2355 38.2453 33.1374 38.2778 33.0444 38.3317C32.6734 38.5489 32.5465 39.0264 32.7622 39.3983L33.5358 40.7441C33.7381 41.1254 34.2097 41.27 34.5902 41.0676C34.9714 40.8653 35.116 40.3937 34.9136 40.0132C34.9051 39.9976 34.8971 39.9808 34.8877 39.9659L34.1095 38.614C33.9466 38.3351 33.637 38.1944 33.3359 38.2325ZM29.8721 39.7554C29.7718 39.7407 29.6682 39.745 29.5639 39.7722C29.5624 39.7729 29.5616 39.7722 29.5609 39.7722C29.1445 39.8831 28.8953 40.3125 29.007 40.7289C29.0078 40.7304 29.0077 40.7311 29.0085 40.7335L29.4113 42.241C29.5402 42.6527 29.9785 42.8811 30.3894 42.7522C30.7769 42.6311 31.0072 42.2343 30.9189 41.8382L30.5161 40.3306C30.4346 40.0177 30.1732 39.7994 29.8721 39.7554Z" fill="#C9E4CA"/>
</svg>
